<svg xmlns="http://www.w3.org/2000/svg" width="4800" height="2700" viewBox="0 0 4800 2700" data-diagram-id="E01" role="img" aria-labelledby="title-E01 desc-E01"><title id="title-E01">U 盾双信封投标、提交回执与撤回泳道图</title><desc id="desc-E01">企业证书校验、双信封加密、SM2 签名、事务提交、签名回执和截止硬闸</desc><defs><style>text { font-family: "PingFang SC", "Microsoft YaHei", "Noto Sans CJK SC", "Source Han Sans SC", sans-serif; }</style><linearGradient id="page-gradient" x1="0" y1="0" x2="0" y2="1"><stop offset="0" stop-color="#FFFFFF"/><stop offset="1" stop-color="#EEF6FB"/></linearGradient><linearGradient id="header-gradient" x1="0" y1="0" x2="1" y2="0"><stop offset="0" stop-color="#052C57"/><stop offset=".62" stop-color="#074B84"/><stop offset="1" stop-color="#087F9E"/></linearGradient><filter id="node-shadow" x="-20%" y="-30%" width="140%" height="170%"><feDropShadow dx="0" dy="9" stdDeviation="9" flood-color="#153B55" flood-opacity=".16"/></filter><pattern id="micro-grid" width="48" height="48" patternUnits="userSpaceOnUse"><path d="M 48 0 L 0 0 0 48" fill="none" stroke="#AFC8D8" stroke-width="1" opacity=".12"/></pattern><marker id="arrow-e01" markerWidth="14" markerHeight="14" refX="12" refY="7" orient="auto" markerUnits="strokeWidth"><path d="M0,0 L14,7 L0,14 z" fill="#507089"/></marker></defs><rect width="4800" height="2700" fill="url(#page-gradient)"/><rect y="286" width="4800" height="2414" fill="url(#micro-grid)"/><g><rect width="4800" height="286" fill="url(#header-gradient)"/><circle cx="4580" cy="20" r="360" fill="rgba(255,255,255,.045)"/><circle cx="4320" cy="250" r="190" fill="rgba(39,177,206,.10)"/><rect x="110" y="62" width="154" height="58" rx="29" fill="rgba(255,255,255,.15)" stroke="rgba(255,255,255,.22)" stroke-width="2"/><text x="187" y="94" text-anchor="middle" dominant-baseline="middle" font-size="28" font-weight="800" fill="#FFFFFF">E01</text><text x="294" y="91" dominant-baseline="middle" font-size="31" font-weight="650" fill="#BEEAF4">E · 投标与开标执行</text><text x="110" y="174" dominant-baseline="middle" font-size="58" font-weight="800" fill="#FFFFFF">U 盾双信封投标、提交回执与撤回泳道图</text><text x="112" y="238" dominant-baseline="middle" font-size="29" font-weight="450" fill="#D4EAF6">企业证书校验、双信封加密、SM2 签名、事务提交、签名回执和截止硬闸</text><g transform="translate(4060 75)"><rect width="610" height="118" rx="26" fill="rgba(255,255,255,.10)" stroke="rgba(255,255,255,.20)" stroke-width="2"/><text x="34" y="43" font-size="22" font-weight="650" fill="#A8DDEA">图面状态</text><text x="34" y="82" font-size="27" font-weight="750" fill="#FFFFFF">现状主流程 + 规划增强</text><text x="34" y="108" font-size="18" fill="#B9D7E7">V1.0 · 2026-09-01</text></g></g><g data-lane="operator"><rect x="110" y="455" width="4580" height="287.5" fill="#F7FBFE" stroke="#DCE8F1" stroke-width="2"/><rect x="110" y="455" width="16" height="287.5" fill="#073B70"/><rect x="128" y="473" width="614" height="251.5" rx="22" fill="#FFFFFF" stroke="#D4E2ED" stroke-width="2"/><text class="" x="435" y="601.75" text-anchor="middle" dominant-baseline="middle" font-size="31" font-weight="700" fill="#0B1F33"><tspan x="435" dy="0">供应商操作人</tspan></text><line x1="792" y1="455" x2="792" y2="742.5" stroke="#C6D8E5" stroke-width="3"/></g><g data-lane="portal"><rect x="110" y="742.5" width="4580" height="287.5" fill="#EEF6FB" stroke="#DCE8F1" stroke-width="2"/><rect x="110" y="742.5" width="16" height="287.5" fill="#20795B"/><rect x="128" y="760.5" width="614" height="251.5" rx="22" fill="#FFFFFF" stroke="#D4E2ED" stroke-width="2"/><text class="" x="435" y="889.25" text-anchor="middle" dominant-baseline="middle" font-size="31" font-weight="700" fill="#0B1F33"><tspan x="435" dy="0">供应商门户</tspan></text><line x1="792" y1="742.5" x2="792" y2="1030" stroke="#C6D8E5" stroke-width="3"/></g><g data-lane="ukey"><rect x="110" y="1030" width="4580" height="287.5" fill="#F7FBFE" stroke="#DCE8F1" stroke-width="2"/><rect x="110" y="1030" width="16" height="287.5" fill="#6746A8"/><rect x="128" y="1048" width="614" height="251.5" rx="22" fill="#FFFFFF" stroke="#D4E2ED" stroke-width="2"/><text class="" x="435" y="1176.75" text-anchor="middle" dominant-baseline="middle" font-size="31" font-weight="700" fill="#0B1F33"><tspan x="435" dy="-19.84">U 盾</tspan><tspan x="435" dy="39.68">CA 中间件</tspan></text><line x1="792" y1="1030" x2="792" y2="1317.5" stroke="#C6D8E5" stroke-width="3"/></g><g data-lane="api"><rect x="110" y="1317.5" width="4580" height="287.5" fill="#EEF6FB" stroke="#DCE8F1" stroke-width="2"/><rect x="110" y="1317.5" width="16" height="287.5" fill="#087F9E"/><rect x="128" y="1335.5" width="614" height="251.5" rx="22" fill="#FFFFFF" stroke="#D4E2ED" stroke-width="2"/><text class="" x="435" y="1464.25" text-anchor="middle" dominant-baseline="middle" font-size="31" font-weight="700" fill="#0B1F33"><tspan x="435" dy="0">SupplierPortal API</tspan></text><line x1="792" y1="1317.5" x2="792" y2="1605" stroke="#C6D8E5" stroke-width="3"/></g><g data-lane="storage"><rect x="110" y="1605" width="4580" height="287.5" fill="#F7FBFE" stroke="#DCE8F1" stroke-width="2"/><rect x="110" y="1605" width="16" height="287.5" fill="#546778"/><rect x="128" y="1623" width="614" height="251.5" rx="22" fill="#FFFFFF" stroke="#D4E2ED" stroke-width="2"/><text class="" x="435" y="1751.75" text-anchor="middle" dominant-baseline="middle" font-size="31" font-weight="700" fill="#0B1F33"><tspan x="435" dy="-19.84">文件存储</tspan><tspan x="435" dy="39.68">密文备份</tspan></text><line x1="792" y1="1605" x2="792" y2="1892.5" stroke="#C6D8E5" stroke-width="3"/></g><g data-lane="project"><rect x="110" y="1892.5" width="4580" height="287.5" fill="#EEF6FB" stroke="#DCE8F1" stroke-width="2"/><rect x="110" y="1892.5" width="16" height="287.5" fill="#B56618"/><rect x="128" y="1910.5" width="614" height="251.5" rx="22" fill="#FFFFFF" stroke="#D4E2ED" stroke-width="2"/><text class="" x="435" y="2039.25" text-anchor="middle" dominant-baseline="middle" font-size="31" font-weight="700" fill="#0B1F33"><tspan x="435" dy="-19.84">BidProject</tspan><tspan x="435" dy="39.68">监督日志</tspan></text><line x1="792" y1="1892.5" x2="792" y2="2180" stroke="#C6D8E5" stroke-width="3"/></g><g data-phase="cert"><rect x="828" y="322" width="758" height="108" rx="20" fill="#E4F1F8" stroke="#C5DDEB" stroke-width="2"/><circle cx="866" cy="350" r="22" fill="#073B70"/><text x="866" y="352" text-anchor="middle" dominant-baseline="middle" font-size="18" font-weight="750" fill="#FFFFFF">01</text><text class="" x="1207" y="383" text-anchor="middle" dominant-baseline="middle" font-size="29" font-weight="750" fill="#0B1F33"><tspan x="1207" dy="0">证书准备</tspan></text><line x1="820" y1="455" x2="820" y2="2180" stroke="#D6E4EE" stroke-width="2" stroke-dasharray="8 10"/></g><g data-phase="draft"><rect x="1602" y="322" width="758" height="108" rx="20" fill="#E4F1F8" stroke="#C5DDEB" stroke-width="2"/><circle cx="1640" cy="350" r="22" fill="#073B70"/><text x="1640" y="352" text-anchor="middle" dominant-baseline="middle" font-size="18" font-weight="750" fill="#FFFFFF">02</text><text class="" x="1981" y="383" text-anchor="middle" dominant-baseline="middle" font-size="29" font-weight="750" fill="#0B1F33"><tspan x="1981" dy="0">填报与校验</tspan></text><line x1="1594" y1="455" x2="1594" y2="2180" stroke="#D6E4EE" stroke-width="2" stroke-dasharray="8 10"/></g><g data-phase="encrypt"><rect x="2376" y="322" width="758" height="108" rx="20" fill="#E4F1F8" stroke="#C5DDEB" stroke-width="2"/><circle cx="2414" cy="350" r="22" fill="#073B70"/><text x="2414" y="352" text-anchor="middle" dominant-baseline="middle" font-size="18" font-weight="750" fill="#FFFFFF">03</text><text class="" x="2755" y="383" text-anchor="middle" dominant-baseline="middle" font-size="29" font-weight="750" fill="#0B1F33"><tspan x="2755" dy="0">加密签名</tspan></text><line x1="2368" y1="455" x2="2368" y2="2180" stroke="#D6E4EE" stroke-width="2" stroke-dasharray="8 10"/></g><g data-phase="submit"><rect x="3150" y="322" width="758" height="108" rx="20" fill="#E4F1F8" stroke="#C5DDEB" stroke-width="2"/><circle cx="3188" cy="350" r="22" fill="#073B70"/><text x="3188" y="352" text-anchor="middle" dominant-baseline="middle" font-size="18" font-weight="750" fill="#FFFFFF">04</text><text class="" x="3529" y="383" text-anchor="middle" dominant-baseline="middle" font-size="29" font-weight="750" fill="#0B1F33"><tspan x="3529" dy="0">提交回执</tspan></text><line x1="3142" y1="455" x2="3142" y2="2180" stroke="#D6E4EE" stroke-width="2" stroke-dasharray="8 10"/></g><g data-phase="revise"><rect x="3924" y="322" width="758" height="108" rx="20" fill="#E4F1F8" stroke="#C5DDEB" stroke-width="2"/><circle cx="3962" cy="350" r="22" fill="#073B70"/><text x="3962" y="352" text-anchor="middle" dominant-baseline="middle" font-size="18" font-weight="750" fill="#FFFFFF">05</text><text class="" x="4303" y="383" text-anchor="middle" dominant-baseline="middle" font-size="29" font-weight="750" fill="#0B1F33"><tspan x="4303" dy="0">撤回与截止</tspan></text><line x1="3916" y1="455" x2="3916" y2="2180" stroke="#D6E4EE" stroke-width="2" stroke-dasharray="8 10"/></g><g aria-label="流程连接线"><path data-edge="bind-certCheck" d="M 1207 676.75 H 1195 V 1095.75 H 1207" fill="none" stroke="#507089" stroke-width="5" stroke-linecap="round" stroke-linejoin="round" opacity=".76" marker-end="url(#arrow-e01)"/><path data-edge="certCheck-certError" d="M 1207 1095.75 H 1195 V 964.25 H 1207" fill="none" stroke="#D0474E" stroke-width="5" stroke-linecap="round" stroke-linejoin="round" opacity=".76" stroke-dasharray="13 9" marker-end="url(#arrow-e01)"/><g><rect x="1161" y="1008" width="92" height="42" rx="21" fill="#FFFFFF" stroke="#D0474E" stroke-width="2" opacity=".96"/><text x="1207" y="1031" text-anchor="middle" dominant-baseline="middle" font-size="21" font-weight="650" fill="#D0474E">否</text></g><path data-edge="certError-bind" d="M 1207 808.25 H 1219 V 676.75 H 1207" fill="none" stroke="#7B5DAE" stroke-width="5" stroke-linecap="round" stroke-linejoin="round" opacity=".76" stroke-dasharray="7 8" marker-end="url(#arrow-e01)"/><g><rect x="1154" y="720.5" width="154" height="42" rx="21" fill="#FFFFFF" stroke="#7B5DAE" stroke-width="2" opacity=".96"/><text x="1231" y="743.5" text-anchor="middle" dominant-baseline="middle" font-size="21" font-weight="650" fill="#7B5DAE">修复后重试</text></g><path data-edge="certCheck-requirements" d="M 1552 1173.75 H 1594 V 1517.9375 H 1636" fill="none" stroke="#507089" stroke-width="5" stroke-linecap="round" stroke-linejoin="round" opacity=".76" marker-end="url(#arrow-e01)"/><g><rect x="1548" y="1132.75" width="92" height="42" rx="21" fill="#FFFFFF" stroke="#507089" stroke-width="2" opacity=".96"/><text x="1594" y="1155.75" text-anchor="middle" dominant-baseline="middle" font-size="21" font-weight="650" fill="#507089">是</text></g><path data-edge="requirements-draft" d="M 1981 1468.25 H 1993 V 964.25 H 1981" fill="none" stroke="#507089" stroke-width="5" stroke-linecap="round" stroke-linejoin="round" opacity=".76" marker-end="url(#arrow-e01)"/><path data-edge="draft-complete" d="M 1981 964.25 H 2005 V 1354.875 H 1981" fill="none" stroke="#507089" stroke-width="5" stroke-linecap="round" stroke-linejoin="round" opacity=".76" marker-end="url(#arrow-e01)"/><path data-edge="complete-draft" d="M 1981 1354.875 H 1957 V 964.25 H 1981" fill="none" stroke="#7B5DAE" stroke-width="5" stroke-linecap="round" stroke-linejoin="round" opacity=".76" stroke-dasharray="7 8" marker-end="url(#arrow-e01)"/><g><rect x="1916" y="1137.5625" width="106" height="42" rx="21" fill="#FFFFFF" stroke="#7B5DAE" stroke-width="2" opacity=".96"/><text x="1969" y="1160.5625" text-anchor="middle" dominant-baseline="middle" font-size="21" font-weight="650" fill="#7B5DAE">不完整</text></g><path data-edge="complete-envelope" d="M 2326 1404.5625 H 2368 V 1173.75 H 2410" fill="none" stroke="#507089" stroke-width="5" stroke-linecap="round" stroke-linejoin="round" opacity=".76" marker-end="url(#arrow-e01)"/><g><rect x="2322" y="1363.5625" width="92" height="42" rx="21" fill="#FFFFFF" stroke="#507089" stroke-width="2" opacity=".96"/><text x="2368" y="1386.5625" text-anchor="middle" dominant-baseline="middle" font-size="21" font-weight="650" fill="#507089">通过</text></g><path data-edge="envelope-cryptoFail" d="M 2755 1095.75 H 2743 V 964.25 H 2755" fill="none" stroke="#D0474E" stroke-width="5" stroke-linecap="round" stroke-linejoin="round" opacity=".76" stroke-dasharray="13 9" marker-end="url(#arrow-e01)"/><g><rect x="2709" y="1008" width="92" height="42" rx="21" fill="#FFFFFF" stroke="#D0474E" stroke-width="2" opacity=".96"/><text x="2755" y="1031" text-anchor="middle" dominant-baseline="middle" font-size="21" font-weight="650" fill="#D0474E">异常</text></g><path data-edge="cryptoFail-draft" d="M 2410 886.25 H 872 V 886.25 H 1636" fill="none" stroke="#7B5DAE" stroke-width="5" stroke-linecap="round" stroke-linejoin="round" opacity=".76" stroke-dasharray="7 8" marker-end="url(#arrow-e01)"/><g><rect x="1491" y="845.25" width="130" height="42" rx="21" fill="#FFFFFF" stroke="#7B5DAE" stroke-width="2" opacity=".96"/><text x="1556" y="868.25" text-anchor="middle" dominant-baseline="middle" font-size="21" font-weight="650" fill="#7B5DAE">重新生成</text></g><path data-edge="envelope-verify" d="M 3100 1173.75 H 3142 V 1461.25 H 3184" fill="none" stroke="#507089" stroke-width="5" stroke-linecap="round" stroke-linejoin="round" opacity=".76" marker-end="url(#arrow-e01)"/><path data-edge="verify-cryptoFail" d="M 3184 1461.25 H 880 V 886.25 H 2410" fill="none" stroke="#D0474E" stroke-width="5" stroke-linecap="round" stroke-linejoin="round" opacity=".76" stroke-dasharray="13 9" marker-end="url(#arrow-e01)"/><g><rect x="2265" y="845.25" width="130" height="42" rx="21" fill="#FFFFFF" stroke="#D0474E" stroke-width="2" opacity=".96"/><text x="2330" y="868.25" text-anchor="middle" dominant-baseline="middle" font-size="21" font-weight="650" fill="#D0474E">验证失败</text></g><path data-edge="verify-persist" d="M 3529 1539.25 H 3553 V 1670.75 H 3529" fill="none" stroke="#507089" stroke-width="5" stroke-linecap="round" stroke-linejoin="round" opacity=".76" marker-end="url(#arrow-e01)"/><g><rect x="3519" y="1583" width="92" height="42" rx="21" fill="#FFFFFF" stroke="#507089" stroke-width="2" opacity=".96"/><text x="3565" y="1606" text-anchor="middle" dominant-baseline="middle" font-size="21" font-weight="650" fill="#507089">通过</text></g><path data-edge="persist-receipt" d="M 3529 1670.75 H 3517 V 964.25 H 3529" fill="none" stroke="#507089" stroke-width="5" stroke-linecap="round" stroke-linejoin="round" opacity=".76" marker-end="url(#arrow-e01)"/><path data-edge="receipt-log" d="M 3529 964.25 H 3505 V 1958.25 H 3529" fill="none" stroke="#507089" stroke-width="5" stroke-linecap="round" stroke-linejoin="round" opacity=".76" marker-end="url(#arrow-e01)"/><path data-edge="log-deadline" d="M 3874 2036.25 H 3916 V 1404.5625 H 3958" fill="none" stroke="#507089" stroke-width="5" stroke-linecap="round" stroke-linejoin="round" opacity=".76" marker-end="url(#arrow-e01)"/><path data-edge="deadline-withdraw" d="M 4303 1354.875 H 4327 V 676.75 H 4303" fill="none" stroke="#507089" stroke-width="5" stroke-linecap="round" stroke-linejoin="round" opacity=".76" marker-end="url(#arrow-e01)"/><g><rect x="4286" y="993.8125" width="106" height="42" rx="21" fill="#FFFFFF" stroke="#507089" stroke-width="2" opacity=".96"/><text x="4339" y="1016.8125" text-anchor="middle" dominant-baseline="middle" font-size="21" font-weight="650" fill="#507089">未截止</text></g><path data-edge="withdraw-draft" d="M 3958 598.75 H 840 V 886.25 H 1636" fill="none" stroke="#7B5DAE" stroke-width="5" stroke-linecap="round" stroke-linejoin="round" opacity=".76" stroke-dasharray="7 8" marker-end="url(#arrow-e01)"/><g><rect x="1510" y="845.25" width="92" height="42" rx="21" fill="#FFFFFF" stroke="#7B5DAE" stroke-width="2" opacity=".96"/><text x="1556" y="868.25" text-anchor="middle" dominant-baseline="middle" font-size="21" font-weight="650" fill="#7B5DAE">重投</text></g><path data-edge="deadline-closed" d="M 4303 1354.875 H 4279 V 964.25 H 4303" fill="none" stroke="#D0474E" stroke-width="5" stroke-linecap="round" stroke-linejoin="round" opacity=".76" stroke-dasharray="13 9" marker-end="url(#arrow-e01)"/><g><rect x="4238" y="1137.5625" width="106" height="42" rx="21" fill="#FFFFFF" stroke="#D0474E" stroke-width="2" opacity=".96"/><text x="4291" y="1160.5625" text-anchor="middle" dominant-baseline="middle" font-size="21" font-weight="650" fill="#D0474E">已截止</text></g><path data-edge="requirements-legacy" d="M 2326 1517.9375 H 3142 V 1517.9375 H 3958" fill="none" stroke="#507089" stroke-width="5" stroke-linecap="round" stroke-linejoin="round" opacity=".76" marker-end="url(#arrow-e01)"/><g><rect x="3077" y="1476.9375" width="130" height="42" rx="21" fill="#FFFFFF" stroke="#507089" stroke-width="2" opacity=".96"/><text x="3142" y="1499.9375" text-anchor="middle" dominant-baseline="middle" font-size="21" font-weight="650" fill="#507089">旧轨项目</text></g></g><g aria-label="流程节点"><g data-node="bind" data-kind="action" data-status="manual"><rect x="862" y="520.75" width="690" height="156" rx="26" fill="#0D5591" stroke="#073B70" stroke-width="5" filter="url(#node-shadow)"/><g><rect x="880" y="534.75" width="98" height="30" rx="15" fill="rgba(255,255,255,.18)"/><text x="893" y="555.75" font-size="18" font-weight="600" fill="rgba(255,255,255,.88)">业务操作</text></g><text class="" x="1207" y="607.75" text-anchor="middle" dominant-baseline="middle" font-size="28" font-weight="650" fill="#FFFFFF"><tspan x="1207" dy="0">绑定企业 U 盾证书</tspan></text></g><g data-node="certCheck" data-kind="decision" data-status="automated"><polygon points="1207,1095.75 1552,1173.75 1207,1251.75 862,1173.75" fill="#087F9E" stroke="#05627B" stroke-width="5" filter="url(#node-shadow)"/><g><rect x="880" y="1109.75" width="74" height="30" rx="15" fill="rgba(255,255,255,.18)"/><text x="893" y="1130.75" font-size="18" font-weight="600" fill="rgba(255,255,255,.88)">判断</text></g><text class="" x="1207" y="1182.75" text-anchor="middle" dominant-baseline="middle" font-size="28" font-weight="650" fill="#FFFFFF"><tspan x="1207" dy="-17.08">DN、序列号、有效期</tspan><tspan x="1207" dy="34.16">企业归属正确？</tspan></text></g><g data-node="certError" data-kind="exception" data-status="exception"><rect x="862" y="808.25" width="690" height="156" rx="26" fill="#BE3C43" stroke="#8F2830" stroke-width="5" stroke-dasharray="14 8" filter="url(#node-shadow)"/><g><rect x="880" y="822.25" width="98" height="30" rx="15" fill="rgba(255,255,255,.18)"/><text x="893" y="843.25" font-size="18" font-weight="600" fill="rgba(255,255,255,.88)">异常分支</text></g><text class="" x="1207" y="895.25" text-anchor="middle" dominant-baseline="middle" font-size="28" font-weight="650" fill="#FFFFFF"><tspan x="1207" dy="0">未连接 / PIN 错误 / 证书过期</tspan></text></g><g data-node="requirements" data-kind="action" data-status="automated"><rect x="1636" y="1468.25" width="690" height="99.375" rx="26" fill="#087F9E" stroke="#05627B" stroke-width="5" filter="url(#node-shadow)"/><text class="" x="1981" y="1517.9375" text-anchor="middle" dominant-baseline="middle" font-size="23" font-weight="650" fill="#FFFFFF"><tspan x="1981" dy="0">获取管理方证书与投递要求</tspan></text></g><g data-node="draft" data-kind="action" data-status="supplier"><rect x="1636" y="808.25" width="690" height="156" rx="26" fill="#20795B" stroke="#155B43" stroke-width="5" filter="url(#node-shadow)"/><g><rect x="1654" y="822.25" width="80" height="30" rx="15" fill="rgba(255,255,255,.18)"/><text x="1667" y="843.25" font-size="18" font-weight="600" fill="rgba(255,255,255,.88)">供应商</text></g><text class="" x="1981" y="895.25" text-anchor="middle" dominant-baseline="middle" font-size="28" font-weight="650" fill="#FFFFFF"><tspan x="1981" dy="0">填写报价承诺并上传双标文件</tspan></text></g><g data-node="complete" data-kind="decision" data-status="automated"><polygon points="1981,1354.875 2326,1404.5625 1981,1454.25 1636,1404.5625" fill="#087F9E" stroke="#05627B" stroke-width="5" filter="url(#node-shadow)"/><text class="" x="1981" y="1404.5625" text-anchor="middle" dominant-baseline="middle" font-size="23" font-weight="650" fill="#FFFFFF"><tspan x="1981" dy="0">完整性、哈希与截止检查？</tspan></text></g><g data-node="envelope" data-kind="action" data-status="automated"><rect x="2410" y="1095.75" width="690" height="156" rx="26" fill="#087F9E" stroke="#05627B" stroke-width="5" filter="url(#node-shadow)"/><g><rect x="2428" y="1109.75" width="98" height="30" rx="15" fill="rgba(255,255,255,.18)"/><text x="2441" y="1130.75" font-size="18" font-weight="600" fill="rgba(255,255,255,.88)">系统自动</text></g><text class="" x="2755" y="1182.75" text-anchor="middle" dominant-baseline="middle" font-size="28" font-weight="650" fill="#FFFFFF"><tspan x="2755" dy="-17.08">生成内外层信封</tspan><tspan x="2755" dy="34.16">字段承诺和 SM2 签名</tspan></text></g><g data-node="cryptoFail" data-kind="exception" data-status="exception"><rect x="2410" y="808.25" width="690" height="156" rx="26" fill="#BE3C43" stroke="#8F2830" stroke-width="5" stroke-dasharray="14 8" filter="url(#node-shadow)"/><g><rect x="2428" y="822.25" width="98" height="30" rx="15" fill="rgba(255,255,255,.18)"/><text x="2441" y="843.25" font-size="18" font-weight="600" fill="rgba(255,255,255,.88)">异常分支</text></g><text class="" x="2755" y="895.25" text-anchor="middle" dominant-baseline="middle" font-size="28" font-weight="650" fill="#FFFFFF"><tspan x="2755" dy="0">哈希不一致 / 签名失败 / 篡改</tspan></text></g><g data-node="verify" data-kind="decision" data-status="automated"><polygon points="3529,1383.25 3874,1461.25 3529,1539.25 3184,1461.25" fill="#087F9E" stroke="#05627B" stroke-width="5" filter="url(#node-shadow)"/><g><rect x="3202" y="1397.25" width="74" height="30" rx="15" fill="rgba(255,255,255,.18)"/><text x="3215" y="1418.25" font-size="18" font-weight="600" fill="rgba(255,255,255,.88)">判断</text></g><text class="" x="3529" y="1470.25" text-anchor="middle" dominant-baseline="middle" font-size="28" font-weight="650" fill="#FFFFFF"><tspan x="3529" dy="0">验证签名、证书、成员与阶段</tspan></text></g><g data-node="persist" data-kind="document" data-status="archive"><path d="M 3206 1670.75 H 3840 L 3874 1704.75 V 1804.75 Q 3874 1826.75 3852 1826.75 H 3206 Q 3184 1826.75 3184 1804.75 V 1692.75 Q 3184 1670.75 3206 1670.75 Z" fill="#546778" stroke="#3C4D5D" stroke-width="5" filter="url(#node-shadow)"/><path d="M 3840 1670.75 V 1704.75 H 3874" fill="none" stroke="rgba(255,255,255,.64)" stroke-width="4"/><g><rect x="3202" y="1684.75" width="152" height="30" rx="15" fill="rgba(255,255,255,.18)"/><text x="3215" y="1705.75" font-size="18" font-weight="600" fill="rgba(255,255,255,.88)">归档 / 外部</text></g><text class="" x="3529" y="1757.75" text-anchor="middle" dominant-baseline="middle" font-size="28" font-weight="650" fill="#FFFFFF"><tspan x="3529" dy="0">事务保存密文与未解密备份</tspan></text></g><g data-node="receipt" data-kind="document" data-status="supplier"><path d="M 3206 808.25 H 3840 L 3874 842.25 V 942.25 Q 3874 964.25 3852 964.25 H 3206 Q 3184 964.25 3184 942.25 V 830.25 Q 3184 808.25 3206 808.25 Z" fill="#20795B" stroke="#155B43" stroke-width="5" filter="url(#node-shadow)"/><path d="M 3840 808.25 V 842.25 H 3874" fill="none" stroke="rgba(255,255,255,.64)" stroke-width="4"/><g><rect x="3202" y="822.25" width="80" height="30" rx="15" fill="rgba(255,255,255,.18)"/><text x="3215" y="843.25" font-size="18" font-weight="600" fill="rgba(255,255,255,.88)">供应商</text></g><text class="" x="3529" y="895.25" text-anchor="middle" dominant-baseline="middle" font-size="28" font-weight="650" fill="#FFFFFF"><tspan x="3529" dy="0">生成并签署投标回执</tspan></text></g><g data-node="log" data-kind="action" data-status="review"><rect x="3184" y="1958.25" width="690" height="156" rx="26" fill="#B56618" stroke="#8D4D0D" stroke-width="5" filter="url(#node-shadow)"/><g><rect x="3202" y="1972.25" width="98" height="30" rx="15" fill="rgba(255,255,255,.18)"/><text x="3215" y="1993.25" font-size="18" font-weight="600" fill="rgba(255,255,255,.88)">审核判断</text></g><text class="" x="3529" y="2045.25" text-anchor="middle" dominant-baseline="middle" font-size="28" font-weight="650" fill="#FFFFFF"><tspan x="3529" dy="0">同步提交状态但不暴露明文</tspan></text></g><g data-node="deadline" data-kind="decision" data-status="automated"><polygon points="4303,1354.875 4648,1404.5625 4303,1454.25 3958,1404.5625" fill="#087F9E" stroke="#05627B" stroke-width="5" filter="url(#node-shadow)"/><text class="" x="4303" y="1404.5625" text-anchor="middle" dominant-baseline="middle" font-size="23" font-weight="650" fill="#FFFFFF"><tspan x="4303" dy="0">服务端截止时间已到？</tspan></text></g><g data-node="withdraw" data-kind="action" data-status="manual"><rect x="3958" y="520.75" width="690" height="156" rx="26" fill="#0D5591" stroke="#073B70" stroke-width="5" filter="url(#node-shadow)"/><g><rect x="3976" y="534.75" width="98" height="30" rx="15" fill="rgba(255,255,255,.18)"/><text x="3989" y="555.75" font-size="18" font-weight="600" fill="rgba(255,255,255,.88)">业务操作</text></g><text class="" x="4303" y="607.75" text-anchor="middle" dominant-baseline="middle" font-size="28" font-weight="650" fill="#FFFFFF"><tspan x="4303" dy="0">截止前撤回、修改并重投</tspan></text></g><g data-node="closed" data-kind="exception" data-status="exception"><rect x="3958" y="808.25" width="690" height="156" rx="26" fill="#BE3C43" stroke="#8F2830" stroke-width="5" stroke-dasharray="14 8" filter="url(#node-shadow)"/><g><rect x="3976" y="822.25" width="98" height="30" rx="15" fill="rgba(255,255,255,.18)"/><text x="3989" y="843.25" font-size="18" font-weight="600" fill="rgba(255,255,255,.88)">异常分支</text></g><text class="" x="4303" y="895.25" text-anchor="middle" dominant-baseline="middle" font-size="28" font-weight="650" fill="#FFFFFF"><tspan x="4303" dy="0">截止后通道关闭 / 网络重试幂等</tspan></text></g><g data-node="legacy" data-kind="action" data-status="archive"><rect x="3958" y="1468.25" width="690" height="99.375" rx="26" fill="#546778" stroke="#3C4D5D" stroke-width="5" filter="url(#node-shadow)"/><text class="" x="4303" y="1517.9375" text-anchor="middle" dominant-baseline="middle" font-size="23" font-weight="650" fill="#FFFFFF"><tspan x="4303" dy="0">存量旧轨兼容分派</tspan></text></g></g><g><line x1="110" y1="2208" x2="4690" y2="2208" stroke="#C8DCE9" stroke-width="3"/><text x="110" y="2224" dominant-baseline="middle" font-size="22" font-weight="750" fill="#073B70">图例</text><g><rect x="110" y="2256" width="28" height="28" rx="8" fill="#0D5591"/><text x="152" y="2272" dominant-baseline="middle" font-size="22" font-weight="600" fill="#597086">业务操作</text></g><g><rect x="402" y="2256" width="28" height="28" rx="8" fill="#087F9E"/><text x="444" y="2272" dominant-baseline="middle" font-size="22" font-weight="600" fill="#597086">系统自动</text></g><g><rect x="694" y="2256" width="28" height="28" rx="8" fill="#20795B"/><text x="736" y="2272" dominant-baseline="middle" font-size="22" font-weight="600" fill="#597086">供应商</text></g><g><rect x="986" y="2256" width="28" height="28" rx="8" fill="#6746A8"/><text x="1028" y="2272" dominant-baseline="middle" font-size="22" font-weight="600" fill="#597086">专家 / AI</text></g><g><rect x="1278" y="2256" width="28" height="28" rx="8" fill="#B56618"/><text x="1320" y="2272" dominant-baseline="middle" font-size="22" font-weight="600" fill="#597086">审核判断</text></g><g><rect x="1570" y="2256" width="28" height="28" rx="8" fill="#BE3C43"/><text x="1612" y="2272" dominant-baseline="middle" font-size="22" font-weight="600" fill="#597086">异常分支</text></g><g><rect x="1862" y="2256" width="28" height="28" rx="8" fill="#546778"/><text x="1904" y="2272" dominant-baseline="middle" font-size="22" font-weight="600" fill="#597086">归档 / 外部</text></g><text x="110" y="2340" dominant-baseline="middle" font-size="22" font-weight="750" fill="#073B70">关键数据产物</text><g><rect x="110" y="2362" width="455.04" height="64" rx="19" fill="#FFFFFF" stroke="#073B70" stroke-width="2"/><circle cx="140" cy="2394" r="9" fill="#073B70"/><text x="164" y="2396" dominant-baseline="middle" font-size="24" font-weight="600" fill="#0B1F33">供应商证书 / 管理方加密证书</text></g><g><rect x="589.04" y="2362" width="458.4000000000001" height="64" rx="19" fill="#FFFFFF" stroke="#073B70" stroke-width="2"/><circle cx="619.04" cy="2394" r="9" fill="#073B70"/><text x="643.04" y="2396" dominant-baseline="middle" font-size="24" font-weight="600" fill="#0B1F33">双信封、字段承诺与 SM2 签名</text></g><g><rect x="1071.44" y="2362" width="555.84" height="64" rx="19" fill="#FFFFFF" stroke="#073B70" stroke-width="2"/><circle cx="1101.44" cy="2394" r="9" fill="#073B70"/><text x="1125.44" y="2396" dominant-baseline="middle" font-size="24" font-weight="600" fill="#0B1F33">BidFileBackup、投标回执和监督日志</text></g><text x="110" y="2432" dominant-baseline="middle" font-size="22" font-weight="750" fill="#073B70">当前系统映射</text><g><rect x="110" y="2454" width="306.08" height="64" rx="19" fill="#FFFFFF" stroke="#087F9E" stroke-width="2"/><circle cx="140" cy="2486" r="9" fill="#087F9E"/><text x="164" y="2488" dominant-baseline="middle" font-size="24" font-weight="600" fill="#0B1F33">:3004 投标提交页</text></g><g><rect x="438.08" y="2454" width="325.12" height="64" rx="19" fill="#FFFFFF" stroke="#087F9E" stroke-width="2"/><circle cx="468.08" cy="2486" r="9" fill="#087F9E"/><text x="492.08" y="2488" dominant-baseline="middle" font-size="24" font-weight="600" fill="#0B1F33">:17999 U 盾中间件</text></g><g><rect x="785.2" y="2454" width="307.2000000000001" height="64" rx="19" fill="#FFFFFF" stroke="#087F9E" stroke-width="2"/><circle cx="815.2" cy="2486" r="9" fill="#087F9E"/><text x="839.2" y="2488" dominant-baseline="middle" font-size="24" font-weight="600" fill="#0B1F33">@water-erp/ukey</text></g><g><rect x="1114.4" y="2454" width="605.1200000000001" height="64" rx="19" fill="#FFFFFF" stroke="#087F9E" stroke-width="2"/><circle cx="1144.4" cy="2486" r="9" fill="#087F9E"/><text x="1168.4" y="2488" dominant-baseline="middle" font-size="24" font-weight="600" fill="#0B1F33">supplier-portal / upload / bid API</text></g><rect x="0" y="2534" width="4800" height="104" fill="#052C57"/><text x="110" y="2575" dominant-baseline="middle" font-size="22" font-weight="750" fill="#7FD1E2">跨图连接</text><text class="" x="4680" y="2575" text-anchor="end" dominant-baseline="middle" font-size="24" font-weight="600" fill="#D5EAF5"><tspan x="4680" dy="0">截止后进入 E02 在线开标与两阶段解密</tspan></text></g></svg>
