<svg xmlns="http://www.w3.org/2000/svg" width="4800" height="2700" viewBox="0 0 4800 2700" data-diagram-id="G02" role="img" aria-labelledby="title-G02 desc-G02"><title id="title-G02">合同编制、审查、签署、履约验收与供应商评价泳道图</title><desc id="desc-G02">成交后合同一致性审查、双方签署、履约证明、整改验收、评价和保证金退还</desc><defs><style>text { font-family: "PingFang SC", "Microsoft YaHei", "Noto Sans CJK SC", "Source Han Sans SC", sans-serif; }</style><linearGradient id="page-gradient" x1="0" y1="0" x2="0" y2="1"><stop offset="0" stop-color="#FFFFFF"/><stop offset="1" stop-color="#EEF6FB"/></linearGradient><linearGradient id="header-gradient" x1="0" y1="0" x2="1" y2="0"><stop offset="0" stop-color="#052C57"/><stop offset=".62" stop-color="#074B84"/><stop offset="1" stop-color="#087F9E"/></linearGradient><filter id="node-shadow" x="-20%" y="-30%" width="140%" height="170%"><feDropShadow dx="0" dy="9" stdDeviation="9" flood-color="#153B55" flood-opacity=".16"/></filter><pattern id="micro-grid" width="48" height="48" patternUnits="userSpaceOnUse"><path d="M 48 0 L 0 0 0 48" fill="none" stroke="#AFC8D8" stroke-width="1" opacity=".12"/></pattern><marker id="arrow-g02" markerWidth="14" markerHeight="14" refX="12" refY="7" orient="auto" markerUnits="strokeWidth"><path d="M0,0 L14,7 L0,14 z" fill="#507089"/></marker></defs><rect width="4800" height="2700" fill="url(#page-gradient)"/><rect y="286" width="4800" height="2414" fill="url(#micro-grid)"/><g><rect width="4800" height="286" fill="url(#header-gradient)"/><circle cx="4580" cy="20" r="360" fill="rgba(255,255,255,.045)"/><circle cx="4320" cy="250" r="190" fill="rgba(39,177,206,.10)"/><rect x="110" y="62" width="154" height="58" rx="29" fill="rgba(255,255,255,.15)" stroke="rgba(255,255,255,.22)" stroke-width="2"/><text x="187" y="94" text-anchor="middle" dominant-baseline="middle" font-size="28" font-weight="800" fill="#FFFFFF">G02</text><text x="294" y="91" dominant-baseline="middle" font-size="31" font-weight="650" fill="#BEEAF4">G · 定标、履约与归档</text><text x="110" y="174" dominant-baseline="middle" font-size="58" font-weight="800" fill="#FFFFFF">合同编制、审查、签署、履约验收与供应商评价泳道图</text><text x="112" y="238" dominant-baseline="middle" font-size="29" font-weight="450" fill="#D4EAF6">成交后合同一致性审查、双方签署、履约证明、整改验收、评价和保证金退还</text><g transform="translate(4060 75)"><rect width="610" height="118" rx="26" fill="rgba(255,255,255,.10)" stroke="rgba(255,255,255,.20)" stroke-width="2"/><text x="34" y="43" font-size="22" font-weight="650" fill="#A8DDEA">图面状态</text><text x="34" y="82" font-size="27" font-weight="750" fill="#FFFFFF">现状主流程 + 规划增强</text><text x="34" y="108" font-size="18" fill="#B9D7E7">V1.0 · 2026-09-01</text></g></g><g data-lane="buyer"><rect x="110" y="455" width="4580" height="287.5" fill="#F7FBFE" stroke="#DCE8F1" stroke-width="2"/><rect x="110" y="455" width="16" height="287.5" fill="#073B70"/><rect x="128" y="473" width="614" height="251.5" rx="22" fill="#FFFFFF" stroke="#D4E2ED" stroke-width="2"/><text class="" x="435" y="601.75" text-anchor="middle" dominant-baseline="middle" font-size="31" font-weight="700" fill="#0B1F33"><tspan x="435" dy="0">采购经办人</tspan></text><line x1="792" y1="455" x2="792" y2="742.5" stroke="#C6D8E5" stroke-width="3"/></g><g data-lane="contract"><rect x="110" y="742.5" width="4580" height="287.5" fill="#EEF6FB" stroke="#DCE8F1" stroke-width="2"/><rect x="110" y="742.5" width="16" height="287.5" fill="#087F9E"/><rect x="128" y="760.5" width="614" height="251.5" rx="22" fill="#FFFFFF" stroke="#D4E2ED" stroke-width="2"/><text class="" x="435" y="889.25" text-anchor="middle" dominant-baseline="middle" font-size="31" font-weight="700" fill="#0B1F33"><tspan x="435" dy="0">合同管理服务</tspan></text><line x1="792" y1="742.5" x2="792" y2="1030" stroke="#C6D8E5" stroke-width="3"/></g><g data-lane="reviewer"><rect x="110" y="1030" width="4580" height="287.5" fill="#F7FBFE" stroke="#DCE8F1" stroke-width="2"/><rect x="110" y="1030" width="16" height="287.5" fill="#B56618"/><rect x="128" y="1048" width="614" height="251.5" rx="22" fill="#FFFFFF" stroke="#D4E2ED" stroke-width="2"/><text class="" x="435" y="1176.75" text-anchor="middle" dominant-baseline="middle" font-size="31" font-weight="700" fill="#0B1F33"><tspan x="435" dy="-39.68">审计</tspan><tspan x="435" dy="39.68">法务</tspan><tspan x="435" dy="39.68">审批人</tspan></text><line x1="792" y1="1030" x2="792" y2="1317.5" stroke="#C6D8E5" stroke-width="3"/></g><g data-lane="supplier"><rect x="110" y="1317.5" width="4580" height="287.5" fill="#EEF6FB" stroke="#DCE8F1" stroke-width="2"/><rect x="110" y="1317.5" width="16" height="287.5" fill="#20795B"/><rect x="128" y="1335.5" width="614" height="251.5" rx="22" fill="#FFFFFF" stroke="#D4E2ED" stroke-width="2"/><text class="" x="435" y="1464.25" text-anchor="middle" dominant-baseline="middle" font-size="31" font-weight="700" fill="#0B1F33"><tspan x="435" dy="0">成交供应商</tspan></text><line x1="792" y1="1317.5" x2="792" y2="1605" stroke="#C6D8E5" stroke-width="3"/></g><g data-lane="acceptor"><rect x="110" y="1605" width="4580" height="287.5" fill="#F7FBFE" stroke="#DCE8F1" stroke-width="2"/><rect x="110" y="1605" width="16" height="287.5" fill="#6746A8"/><rect x="128" y="1623" width="614" height="251.5" rx="22" fill="#FFFFFF" stroke="#D4E2ED" stroke-width="2"/><text class="" x="435" y="1751.75" text-anchor="middle" dominant-baseline="middle" font-size="31" font-weight="700" fill="#0B1F33"><tspan x="435" dy="-19.84">履约</tspan><tspan x="435" dy="39.68">验收责任人</tspan></text><line x1="792" y1="1605" x2="792" y2="1892.5" stroke="#C6D8E5" stroke-width="3"/></g><g data-lane="performance"><rect x="110" y="1892.5" width="4580" height="287.5" fill="#EEF6FB" stroke="#DCE8F1" stroke-width="2"/><rect x="110" y="1892.5" width="16" height="287.5" fill="#546778"/><rect x="128" y="1910.5" width="614" height="251.5" rx="22" fill="#FFFFFF" stroke="#D4E2ED" stroke-width="2"/><text class="" x="435" y="2039.25" text-anchor="middle" dominant-baseline="middle" font-size="31" font-weight="700" fill="#0B1F33"><tspan x="435" dy="-39.68">绩效</tspan><tspan x="435" dy="39.68">保证金</tspan><tspan x="435" dy="39.68">通知</tspan></text><line x1="792" y1="1892.5" x2="792" y2="2180" stroke="#C6D8E5" stroke-width="3"/></g><g data-phase="draft"><rect x="828" y="322" width="758" height="108" rx="20" fill="#E4F1F8" stroke="#C5DDEB" stroke-width="2"/><circle cx="866" cy="350" r="22" fill="#073B70"/><text x="866" y="352" text-anchor="middle" dominant-baseline="middle" font-size="18" font-weight="750" fill="#FFFFFF">01</text><text class="" x="1207" y="383" text-anchor="middle" dominant-baseline="middle" font-size="29" font-weight="750" fill="#0B1F33"><tspan x="1207" dy="0">合同草拟</tspan></text><line x1="820" y1="455" x2="820" y2="2180" stroke="#D6E4EE" stroke-width="2" stroke-dasharray="8 10"/></g><g data-phase="review"><rect x="1602" y="322" width="758" height="108" rx="20" fill="#E4F1F8" stroke="#C5DDEB" stroke-width="2"/><circle cx="1640" cy="350" r="22" fill="#073B70"/><text x="1640" y="352" text-anchor="middle" dominant-baseline="middle" font-size="18" font-weight="750" fill="#FFFFFF">02</text><text class="" x="1981" y="383" text-anchor="middle" dominant-baseline="middle" font-size="29" font-weight="750" fill="#0B1F33"><tspan x="1981" dy="0">审查签署</tspan></text><line x1="1594" y1="455" x2="1594" y2="2180" stroke="#D6E4EE" stroke-width="2" stroke-dasharray="8 10"/></g><g data-phase="perform"><rect x="2376" y="322" width="758" height="108" rx="20" fill="#E4F1F8" stroke="#C5DDEB" stroke-width="2"/><circle cx="2414" cy="350" r="22" fill="#073B70"/><text x="2414" y="352" text-anchor="middle" dominant-baseline="middle" font-size="18" font-weight="750" fill="#FFFFFF">03</text><text class="" x="2755" y="383" text-anchor="middle" dominant-baseline="middle" font-size="29" font-weight="750" fill="#0B1F33"><tspan x="2755" dy="0">履约执行</tspan></text><line x1="2368" y1="455" x2="2368" y2="2180" stroke="#D6E4EE" stroke-width="2" stroke-dasharray="8 10"/></g><g data-phase="accept"><rect x="3150" y="322" width="758" height="108" rx="20" fill="#E4F1F8" stroke="#C5DDEB" stroke-width="2"/><circle cx="3188" cy="350" r="22" fill="#073B70"/><text x="3188" y="352" text-anchor="middle" dominant-baseline="middle" font-size="18" font-weight="750" fill="#FFFFFF">04</text><text class="" x="3529" y="383" text-anchor="middle" dominant-baseline="middle" font-size="29" font-weight="750" fill="#0B1F33"><tspan x="3529" dy="0">验收整改</tspan></text><line x1="3142" y1="455" x2="3142" y2="2180" stroke="#D6E4EE" stroke-width="2" stroke-dasharray="8 10"/></g><g data-phase="evaluate"><rect x="3924" y="322" width="758" height="108" rx="20" fill="#E4F1F8" stroke="#C5DDEB" stroke-width="2"/><circle cx="3962" cy="350" r="22" fill="#073B70"/><text x="3962" y="352" text-anchor="middle" dominant-baseline="middle" font-size="18" font-weight="750" fill="#FFFFFF">05</text><text class="" x="4303" y="383" text-anchor="middle" dominant-baseline="middle" font-size="29" font-weight="750" fill="#0B1F33"><tspan x="4303" dy="0">评价与关闭</tspan></text><line x1="3916" y1="455" x2="3916" y2="2180" stroke="#D6E4EE" stroke-width="2" stroke-dasharray="8 10"/></g><g aria-label="流程连接线"><path data-edge="generate-consistency" d="M 1207 893.25 H 1207 V 879.25 H 1207" fill="none" stroke="#507089" stroke-width="5" stroke-linecap="round" stroke-linejoin="round" opacity=".76" marker-end="url(#arrow-g02)"/><path data-edge="consistency-revise" d="M 1207 779.875 H 1195 V 676.75 H 1207" fill="none" stroke="#D0474E" stroke-width="5" stroke-linecap="round" stroke-linejoin="round" opacity=".76" stroke-dasharray="13 9" marker-end="url(#arrow-g02)"/><g><rect x="1161" y="706.3125" width="92" height="42" rx="21" fill="#FFFFFF" stroke="#D0474E" stroke-width="2" opacity=".96"/><text x="1207" y="729.3125" text-anchor="middle" dominant-baseline="middle" font-size="21" font-weight="650" fill="#D0474E">否</text></g><path data-edge="revise-generate" d="M 1207 676.75 H 1219 V 893.25 H 1207" fill="none" stroke="#7B5DAE" stroke-width="5" stroke-linecap="round" stroke-linejoin="round" opacity=".76" stroke-dasharray="7 8" marker-end="url(#arrow-g02)"/><g><rect x="1178" y="763" width="106" height="42" rx="21" fill="#FFFFFF" stroke="#7B5DAE" stroke-width="2" opacity=".96"/><text x="1231" y="786" text-anchor="middle" dominant-baseline="middle" font-size="21" font-weight="650" fill="#7B5DAE">重生成</text></g><path data-edge="consistency-approve" d="M 1552 829.5625 H 1594 V 1173.75 H 1636" fill="none" stroke="#507089" stroke-width="5" stroke-linecap="round" stroke-linejoin="round" opacity=".76" marker-end="url(#arrow-g02)"/><g><rect x="1548" y="788.5625" width="92" height="42" rx="21" fill="#FFFFFF" stroke="#507089" stroke-width="2" opacity=".96"/><text x="1594" y="811.5625" text-anchor="middle" dominant-baseline="middle" font-size="21" font-weight="650" fill="#507089">是</text></g><path data-edge="approve-return" d="M 1981 1095.75 H 1957 V 676.75 H 1981" fill="none" stroke="#D0474E" stroke-width="5" stroke-linecap="round" stroke-linejoin="round" opacity=".76" stroke-dasharray="13 9" marker-end="url(#arrow-g02)"/><g><rect x="1923" y="864.25" width="92" height="42" rx="21" fill="#FFFFFF" stroke="#D0474E" stroke-width="2" opacity=".96"/><text x="1969" y="887.25" text-anchor="middle" dominant-baseline="middle" font-size="21" font-weight="650" fill="#D0474E">退回</text></g><path data-edge="return-approve" d="M 1981 676.75 H 1957 V 1095.75 H 1981" fill="none" stroke="#7B5DAE" stroke-width="5" stroke-linecap="round" stroke-linejoin="round" opacity=".76" stroke-dasharray="7 8" marker-end="url(#arrow-g02)"/><g><rect x="1923" y="864.25" width="92" height="42" rx="21" fill="#FFFFFF" stroke="#7B5DAE" stroke-width="2" opacity=".96"/><text x="1969" y="887.25" text-anchor="middle" dominant-baseline="middle" font-size="21" font-weight="650" fill="#7B5DAE">重提</text></g><path data-edge="approve-sign" d="M 1981 1251.75 H 2005 V 1383.25 H 1981" fill="none" stroke="#507089" stroke-width="5" stroke-linecap="round" stroke-linejoin="round" opacity=".76" marker-end="url(#arrow-g02)"/><g><rect x="1971" y="1295.5" width="92" height="42" rx="21" fill="#FFFFFF" stroke="#507089" stroke-width="2" opacity=".96"/><text x="2017" y="1318.5" text-anchor="middle" dominant-baseline="middle" font-size="21" font-weight="650" fill="#507089">通过</text></g><path data-edge="sign-refuse" d="M 1981 1383.25 H 1969 V 964.25 H 1981" fill="none" stroke="#D0474E" stroke-width="5" stroke-linecap="round" stroke-linejoin="round" opacity=".76" stroke-dasharray="13 9" marker-end="url(#arrow-g02)"/><g><rect x="1895.84" y="1151.75" width="170.32" height="42" rx="21" fill="#FFFFFF" stroke="#D0474E" stroke-width="2" opacity=".96"/><text x="1981" y="1174.75" text-anchor="middle" dominant-baseline="middle" font-size="21" font-weight="650" fill="#D0474E">拒签 / 超时</text></g><path data-edge="sign-milestone" d="M 2326 1461.25 H 2368 V 1748.75 H 2410" fill="none" stroke="#507089" stroke-width="5" stroke-linecap="round" stroke-linejoin="round" opacity=".76" marker-end="url(#arrow-g02)"/><g><rect x="2322" y="1420.25" width="92" height="42" rx="21" fill="#FFFFFF" stroke="#507089" stroke-width="2" opacity=".96"/><text x="2368" y="1443.25" text-anchor="middle" dominant-baseline="middle" font-size="21" font-weight="650" fill="#507089">生效</text></g><path data-edge="milestone-evidence" d="M 2755 1670.75 H 2779 V 1539.25 H 2755" fill="none" stroke="#507089" stroke-width="5" stroke-linecap="round" stroke-linejoin="round" opacity=".76" marker-end="url(#arrow-g02)"/><path data-edge="evidence-delay" d="M 2755 1539.25 H 2743 V 1958.25 H 2755" fill="none" stroke="#D0474E" stroke-width="5" stroke-linecap="round" stroke-linejoin="round" opacity=".76" stroke-dasharray="13 9" marker-end="url(#arrow-g02)"/><g><rect x="2709" y="1726.75" width="92" height="42" rx="21" fill="#FFFFFF" stroke="#D0474E" stroke-width="2" opacity=".96"/><text x="2755" y="1749.75" text-anchor="middle" dominant-baseline="middle" font-size="21" font-weight="650" fill="#D0474E">异常</text></g><path data-edge="delay-milestone" d="M 2755 1958.25 H 2731 V 1826.75 H 2755" fill="none" stroke="#7B5DAE" stroke-width="5" stroke-linecap="round" stroke-linejoin="round" opacity=".76" stroke-dasharray="7 8" marker-end="url(#arrow-g02)"/><g><rect x="2657.84" y="1870.5" width="170.32" height="42" rx="21" fill="#FFFFFF" stroke="#7B5DAE" stroke-width="2" opacity=".96"/><text x="2743" y="1893.5" text-anchor="middle" dominant-baseline="middle" font-size="21" font-weight="650" fill="#7B5DAE">调整 / 变更</text></g><path data-edge="evidence-accept" d="M 3100 1461.25 H 3142 V 1748.75 H 3184" fill="none" stroke="#507089" stroke-width="5" stroke-linecap="round" stroke-linejoin="round" opacity=".76" marker-end="url(#arrow-g02)"/><path data-edge="accept-rectify" d="M 3529 1670.75 H 3517 V 1539.25 H 3529" fill="none" stroke="#D0474E" stroke-width="5" stroke-linecap="round" stroke-linejoin="round" opacity=".76" stroke-dasharray="13 9" marker-end="url(#arrow-g02)"/><g><rect x="3476" y="1583" width="106" height="42" rx="21" fill="#FFFFFF" stroke="#D0474E" stroke-width="2" opacity=".96"/><text x="3529" y="1606" text-anchor="middle" dominant-baseline="middle" font-size="21" font-weight="650" fill="#D0474E">不通过</text></g><path data-edge="rectify-accept" d="M 3529 1539.25 H 3541 V 1670.75 H 3529" fill="none" stroke="#7B5DAE" stroke-width="5" stroke-linecap="round" stroke-linejoin="round" opacity=".76" stroke-dasharray="7 8" marker-end="url(#arrow-g02)"/><g><rect x="3507" y="1583" width="92" height="42" rx="21" fill="#FFFFFF" stroke="#7B5DAE" stroke-width="2" opacity=".96"/><text x="3553" y="1606" text-anchor="middle" dominant-baseline="middle" font-size="21" font-weight="650" fill="#7B5DAE">重验</text></g><path data-edge="accept-terminate" d="M 3529 1670.75 H 3541 V 964.25 H 3529" fill="none" stroke="#D0474E" stroke-width="5" stroke-linecap="round" stroke-linejoin="round" opacity=".76" stroke-dasharray="13 9" marker-end="url(#arrow-g02)"/><g><rect x="3507" y="1295.5" width="92" height="42" rx="21" fill="#FFFFFF" stroke="#D0474E" stroke-width="2" opacity=".96"/><text x="3553" y="1318.5" text-anchor="middle" dominant-baseline="middle" font-size="21" font-weight="650" fill="#D0474E">终止</text></g><path data-edge="accept-evaluate" d="M 3874 1748.75 H 3916 V 2092.9375 H 3958" fill="none" stroke="#507089" stroke-width="5" stroke-linecap="round" stroke-linejoin="round" opacity=".76" marker-end="url(#arrow-g02)"/><g><rect x="3870" y="1707.75" width="92" height="42" rx="21" fill="#FFFFFF" stroke="#507089" stroke-width="2" opacity=".96"/><text x="3916" y="1730.75" text-anchor="middle" dominant-baseline="middle" font-size="21" font-weight="650" fill="#507089">通过</text></g><path data-edge="terminate-evaluate" d="M 3874 886.25 H 3916 V 2092.9375 H 3958" fill="none" stroke="#507089" stroke-width="5" stroke-linecap="round" stroke-linejoin="round" opacity=".76" marker-end="url(#arrow-g02)"/><path data-edge="evaluate-bond" d="M 4303 2043.25 H 4303 V 2029.25 H 4303" fill="none" stroke="#507089" stroke-width="5" stroke-linecap="round" stroke-linejoin="round" opacity=".76" marker-end="url(#arrow-g02)"/><path data-edge="bond-close" d="M 4303 1929.875 H 4291 V 964.25 H 4303" fill="none" stroke="#507089" stroke-width="5" stroke-linecap="round" stroke-linejoin="round" opacity=".76" marker-end="url(#arrow-g02)"/><g><rect x="4193.84" y="1425.0625" width="218.32" height="42" rx="21" fill="#FFFFFF" stroke="#507089" stroke-width="2" opacity=".96"/><text x="4303" y="1448.0625" text-anchor="middle" dominant-baseline="middle" font-size="21" font-weight="650" fill="#507089">退还 / 说明延期</text></g></g><g aria-label="流程节点"><g data-node="generate" data-kind="action" data-status="manual"><rect x="862" y="893.25" width="690" height="99.375" rx="26" fill="#0D5591" stroke="#073B70" stroke-width="5" filter="url(#node-shadow)"/><text class="" x="1207" y="942.9375" text-anchor="middle" dominant-baseline="middle" font-size="23" font-weight="650" fill="#FFFFFF"><tspan x="1207" dy="-14.03">从项目、文件与通知书</tspan><tspan x="1207" dy="28.06">生成合同草稿</tspan></text></g><g data-node="consistency" data-kind="decision" data-status="automated"><polygon points="1207,779.875 1552,829.5625 1207,879.25 862,829.5625" fill="#087F9E" stroke="#05627B" stroke-width="5" filter="url(#node-shadow)"/><text class="" x="1207" y="829.5625" text-anchor="middle" dominant-baseline="middle" font-size="23" font-weight="650" fill="#FFFFFF"><tspan x="1207" dy="0">金额、标的、期限一致？</tspan></text></g><g data-node="revise" data-kind="exception" data-status="exception"><rect x="862" y="520.75" width="690" height="156" rx="26" fill="#BE3C43" stroke="#8F2830" stroke-width="5" stroke-dasharray="14 8" filter="url(#node-shadow)"/><g><rect x="880" y="534.75" width="98" height="30" rx="15" fill="rgba(255,255,255,.18)"/><text x="893" y="555.75" font-size="18" font-weight="600" fill="rgba(255,255,255,.88)">异常分支</text></g><text class="" x="1207" y="607.75" text-anchor="middle" dominant-baseline="middle" font-size="28" font-weight="650" fill="#FFFFFF"><tspan x="1207" dy="0">修订实质性差异</tspan></text></g><g data-node="approve" data-kind="decision" data-status="review"><polygon points="1981,1095.75 2326,1173.75 1981,1251.75 1636,1173.75" fill="#B56618" stroke="#8D4D0D" stroke-width="5" filter="url(#node-shadow)"/><g><rect x="1654" y="1109.75" width="74" height="30" rx="15" fill="rgba(255,255,255,.18)"/><text x="1667" y="1130.75" font-size="18" font-weight="600" fill="rgba(255,255,255,.88)">判断</text></g><text class="" x="1981" y="1182.75" text-anchor="middle" dominant-baseline="middle" font-size="28" font-weight="650" fill="#FFFFFF"><tspan x="1981" dy="0">内部审查通过？</tspan></text></g><g data-node="return" data-kind="exception" data-status="exception"><rect x="1636" y="520.75" width="690" height="156" rx="26" fill="#BE3C43" stroke="#8F2830" stroke-width="5" stroke-dasharray="14 8" filter="url(#node-shadow)"/><g><rect x="1654" y="534.75" width="98" height="30" rx="15" fill="rgba(255,255,255,.18)"/><text x="1667" y="555.75" font-size="18" font-weight="600" fill="rgba(255,255,255,.88)">异常分支</text></g><text class="" x="1981" y="607.75" text-anchor="middle" dominant-baseline="middle" font-size="28" font-weight="650" fill="#FFFFFF"><tspan x="1981" dy="0">退回修改 / 补充说明</tspan></text></g><g data-node="sign" data-kind="action" data-status="manual"><rect x="1636" y="1383.25" width="690" height="156" rx="26" fill="#0D5591" stroke="#073B70" stroke-width="5" filter="url(#node-shadow)"/><g><rect x="1654" y="1397.25" width="98" height="30" rx="15" fill="rgba(255,255,255,.18)"/><text x="1667" y="1418.25" font-size="18" font-weight="600" fill="rgba(255,255,255,.88)">业务操作</text></g><text class="" x="1981" y="1470.25" text-anchor="middle" dominant-baseline="middle" font-size="28" font-weight="650" fill="#FFFFFF"><tspan x="1981" dy="0">双方签署合同</tspan></text></g><g data-node="refuse" data-kind="exception" data-status="exception"><rect x="1636" y="808.25" width="690" height="156" rx="26" fill="#BE3C43" stroke="#8F2830" stroke-width="5" stroke-dasharray="14 8" filter="url(#node-shadow)"/><g><rect x="1654" y="822.25" width="98" height="30" rx="15" fill="rgba(255,255,255,.18)"/><text x="1667" y="843.25" font-size="18" font-weight="600" fill="rgba(255,255,255,.88)">异常分支</text></g><text class="" x="1981" y="895.25" text-anchor="middle" dominant-baseline="middle" font-size="28" font-weight="650" fill="#FFFFFF"><tspan x="1981" dy="0">签约超时 / 供应商拒签</tspan></text></g><g data-node="milestone" data-kind="action" data-status="manual"><rect x="2410" y="1670.75" width="690" height="156" rx="26" fill="#0D5591" stroke="#073B70" stroke-width="5" filter="url(#node-shadow)"/><g><rect x="2428" y="1684.75" width="98" height="30" rx="15" fill="rgba(255,255,255,.18)"/><text x="2441" y="1705.75" font-size="18" font-weight="600" fill="rgba(255,255,255,.88)">业务操作</text></g><text class="" x="2755" y="1757.75" text-anchor="middle" dominant-baseline="middle" font-size="28" font-weight="650" fill="#FFFFFF"><tspan x="2755" dy="0">登记履约节点、进度与问题</tspan></text></g><g data-node="evidence" data-kind="document" data-status="supplier"><path d="M 2432 1383.25 H 3066 L 3100 1417.25 V 1517.25 Q 3100 1539.25 3078 1539.25 H 2432 Q 2410 1539.25 2410 1517.25 V 1405.25 Q 2410 1383.25 2432 1383.25 Z" fill="#20795B" stroke="#155B43" stroke-width="5" filter="url(#node-shadow)"/><path d="M 3066 1383.25 V 1417.25 H 3100" fill="none" stroke="rgba(255,255,255,.64)" stroke-width="4"/><g><rect x="2428" y="1397.25" width="80" height="30" rx="15" fill="rgba(255,255,255,.18)"/><text x="2441" y="1418.25" font-size="18" font-weight="600" fill="rgba(255,255,255,.88)">供应商</text></g><text class="" x="2755" y="1470.25" text-anchor="middle" dominant-baseline="middle" font-size="28" font-weight="650" fill="#FFFFFF"><tspan x="2755" dy="0">上传履约证明材料</tspan></text></g><g data-node="delay" data-kind="exception" data-status="exception"><rect x="2410" y="1958.25" width="690" height="156" rx="26" fill="#BE3C43" stroke="#8F2830" stroke-width="5" stroke-dasharray="14 8" filter="url(#node-shadow)"/><g><rect x="2428" y="1972.25" width="98" height="30" rx="15" fill="rgba(255,255,255,.18)"/><text x="2441" y="1993.25" font-size="18" font-weight="600" fill="rgba(255,255,255,.88)">异常分支</text></g><text class="" x="2755" y="2045.25" text-anchor="middle" dominant-baseline="middle" font-size="28" font-weight="650" fill="#FFFFFF"><tspan x="2755" dy="0">延期 / 证明不足 / 合同变更</tspan></text></g><g data-node="accept" data-kind="decision" data-status="review"><polygon points="3529,1670.75 3874,1748.75 3529,1826.75 3184,1748.75" fill="#B56618" stroke="#8D4D0D" stroke-width="5" filter="url(#node-shadow)"/><g><rect x="3202" y="1684.75" width="74" height="30" rx="15" fill="rgba(255,255,255,.18)"/><text x="3215" y="1705.75" font-size="18" font-weight="600" fill="rgba(255,255,255,.88)">判断</text></g><text class="" x="3529" y="1757.75" text-anchor="middle" dominant-baseline="middle" font-size="28" font-weight="650" fill="#FFFFFF"><tspan x="3529" dy="0">验收通过？</tspan></text></g><g data-node="rectify" data-kind="exception" data-status="exception"><rect x="3184" y="1383.25" width="690" height="156" rx="26" fill="#BE3C43" stroke="#8F2830" stroke-width="5" stroke-dasharray="14 8" filter="url(#node-shadow)"/><g><rect x="3202" y="1397.25" width="98" height="30" rx="15" fill="rgba(255,255,255,.18)"/><text x="3215" y="1418.25" font-size="18" font-weight="600" fill="rgba(255,255,255,.88)">异常分支</text></g><text class="" x="3529" y="1470.25" text-anchor="middle" dominant-baseline="middle" font-size="28" font-weight="650" fill="#FFFFFF"><tspan x="3529" dy="0">整改并申请重新验收</tspan></text></g><g data-node="terminate" data-kind="exception" data-status="exception"><rect x="3184" y="808.25" width="690" height="156" rx="26" fill="#BE3C43" stroke="#8F2830" stroke-width="5" stroke-dasharray="14 8" filter="url(#node-shadow)"/><g><rect x="3202" y="822.25" width="98" height="30" rx="15" fill="rgba(255,255,255,.18)"/><text x="3215" y="843.25" font-size="18" font-weight="600" fill="rgba(255,255,255,.88)">异常分支</text></g><text class="" x="3529" y="895.25" text-anchor="middle" dominant-baseline="middle" font-size="28" font-weight="650" fill="#FFFFFF"><tspan x="3529" dy="0">合同终止并记录原因</tspan></text></g><g data-node="evaluate" data-kind="action" data-status="automated"><rect x="3958" y="2043.25" width="690" height="99.375" rx="26" fill="#087F9E" stroke="#05627B" stroke-width="5" filter="url(#node-shadow)"/><text class="" x="4303" y="2092.9375" text-anchor="middle" dominant-baseline="middle" font-size="23" font-weight="650" fill="#FFFFFF"><tspan x="4303" dy="0">生成项目与供应商评价</tspan></text></g><g data-node="bond" data-kind="decision" data-status="review"><polygon points="4303,1929.875 4648,1979.5625 4303,2029.25 3958,1979.5625" fill="#B56618" stroke="#8D4D0D" stroke-width="5" filter="url(#node-shadow)"/><text class="" x="4303" y="1979.5625" text-anchor="middle" dominant-baseline="middle" font-size="23" font-weight="650" fill="#FFFFFF"><tspan x="4303" dy="0">保证金满足退还条件？</tspan></text></g><g data-node="close" data-kind="document" data-status="archive"><path d="M 3980 808.25 H 4614 L 4648 842.25 V 942.25 Q 4648 964.25 4626 964.25 H 3980 Q 3958 964.25 3958 942.25 V 830.25 Q 3958 808.25 3980 808.25 Z" fill="#546778" stroke="#3C4D5D" stroke-width="5" filter="url(#node-shadow)"/><path d="M 4614 808.25 V 842.25 H 4648" fill="none" stroke="rgba(255,255,255,.64)" stroke-width="4"/><g><rect x="3976" y="822.25" width="152" height="30" rx="15" fill="rgba(255,255,255,.18)"/><text x="3989" y="843.25" font-size="18" font-weight="600" fill="rgba(255,255,255,.88)">归档 / 外部</text></g><text class="" x="4303" y="895.25" text-anchor="middle" dominant-baseline="middle" font-size="28" font-weight="650" fill="#FFFFFF"><tspan x="4303" dy="0">登记退还并完成合同</tspan></text></g></g><g><line x1="110" y1="2208" x2="4690" y2="2208" stroke="#C8DCE9" stroke-width="3"/><text x="110" y="2224" dominant-baseline="middle" font-size="22" font-weight="750" fill="#073B70">图例</text><g><rect x="110" y="2256" width="28" height="28" rx="8" fill="#0D5591"/><text x="152" y="2272" dominant-baseline="middle" font-size="22" font-weight="600" fill="#597086">业务操作</text></g><g><rect x="402" y="2256" width="28" height="28" rx="8" fill="#087F9E"/><text x="444" y="2272" dominant-baseline="middle" font-size="22" font-weight="600" fill="#597086">系统自动</text></g><g><rect x="694" y="2256" width="28" height="28" rx="8" fill="#20795B"/><text x="736" y="2272" dominant-baseline="middle" font-size="22" font-weight="600" fill="#597086">供应商</text></g><g><rect x="986" y="2256" width="28" height="28" rx="8" fill="#6746A8"/><text x="1028" y="2272" dominant-baseline="middle" font-size="22" font-weight="600" fill="#597086">专家 / AI</text></g><g><rect x="1278" y="2256" width="28" height="28" rx="8" fill="#B56618"/><text x="1320" y="2272" dominant-baseline="middle" font-size="22" font-weight="600" fill="#597086">审核判断</text></g><g><rect x="1570" y="2256" width="28" height="28" rx="8" fill="#BE3C43"/><text x="1612" y="2272" dominant-baseline="middle" font-size="22" font-weight="600" fill="#597086">异常分支</text></g><g><rect x="1862" y="2256" width="28" height="28" rx="8" fill="#546778"/><text x="1904" y="2272" dominant-baseline="middle" font-size="22" font-weight="600" fill="#597086">归档 / 外部</text></g><text x="110" y="2340" dominant-baseline="middle" font-size="22" font-weight="750" fill="#073B70">关键数据产物</text><g><rect x="110" y="2362" width="436" height="64" rx="19" fill="#FFFFFF" stroke="#073B70" stroke-width="2"/><circle cx="140" cy="2394" r="9" fill="#073B70"/><text x="164" y="2396" dominant-baseline="middle" font-size="24" font-weight="600" fill="#0B1F33">合同草稿、审查意见与签署件</text></g><g><rect x="570" y="2362" width="492" height="64" rx="19" fill="#FFFFFF" stroke="#073B70" stroke-width="2"/><circle cx="600" cy="2394" r="9" fill="#073B70"/><text x="624" y="2396" dominant-baseline="middle" font-size="24" font-weight="600" fill="#0B1F33">履约节点、证明、整改和验收记录</text></g><g><rect x="1086" y="2362" width="436" height="64" rx="19" fill="#FFFFFF" stroke="#073B70" stroke-width="2"/><circle cx="1116" cy="2394" r="9" fill="#073B70"/><text x="1140" y="2396" dominant-baseline="middle" font-size="24" font-weight="600" fill="#0B1F33">供应商评价与保证金退还记录</text></g><text x="110" y="2432" dominant-baseline="middle" font-size="22" font-weight="750" fill="#073B70">当前系统映射</text><g><rect x="110" y="2454" width="306.08" height="64" rx="19" fill="#FFFFFF" stroke="#087F9E" stroke-width="2"/><circle cx="140" cy="2486" r="9" fill="#087F9E"/><text x="164" y="2488" dominant-baseline="middle" font-size="24" font-weight="600" fill="#0B1F33">:3005 合同与履约</text></g><g><rect x="438.08" y="2454" width="306.08" height="64" rx="19" fill="#FFFFFF" stroke="#087F9E" stroke-width="2"/><circle cx="468.08" cy="2486" r="9" fill="#087F9E"/><text x="492.08" y="2488" dominant-baseline="middle" font-size="24" font-weight="600" fill="#0B1F33">:3004 供应商合同</text></g><g><rect x="766.16" y="2454" width="699.1999999999998" height="64" rx="19" fill="#FFFFFF" stroke="#087F9E" stroke-width="2"/><circle cx="796.16" cy="2486" r="9" fill="#087F9E"/><text x="820.16" y="2488" dominant-baseline="middle" font-size="24" font-weight="600" fill="#0B1F33">contract / performance / bond-return API</text></g><rect x="0" y="2534" width="4800" height="104" fill="#052C57"/><text x="110" y="2575" dominant-baseline="middle" font-size="22" font-weight="750" fill="#7FD1E2">跨图连接</text><text class="" x="4680" y="2575" text-anchor="end" dominant-baseline="middle" font-size="24" font-weight="600" fill="#D5EAF5"><tspan x="4680" dy="0">合同与评价材料汇入 G03 电子归档</tspan></text></g></svg>
